%TF.GenerationSoftware,KiCad,Pcbnew,10.0.5*%
%TF.CreationDate,2026-08-10T20:39:46+10:00*%
%TF.ProjectId,simpleBuck,73696d70-6c65-4427-9563-6b2e6b696361,rev?*%
%TF.SameCoordinates,Original*%
%TF.FileFunction,Legend,Top*%
%TF.FilePolarity,Positive*%
%FSLAX46Y46*%
G04 Gerber Fmt 4.6, Leading zero omitted, Abs format (unit mm)*
G04 Created by KiCad (PCBNEW 10.0.5) date 2026-08-10 20:39:46*
%MOMM*%
%LPD*%
G01*
G04 APERTURE LIST*
%ADD10C,0.150000*%
%ADD11C,0.120000*%
G04 APERTURE END LIST*
D10*
X75833333Y-84454819D02*
X75500000Y-83978628D01*
X75261905Y-84454819D02*
X75261905Y-83454819D01*
X75261905Y-83454819D02*
X75642857Y-83454819D01*
X75642857Y-83454819D02*
X75738095Y-83502438D01*
X75738095Y-83502438D02*
X75785714Y-83550057D01*
X75785714Y-83550057D02*
X75833333Y-83645295D01*
X75833333Y-83645295D02*
X75833333Y-83788152D01*
X75833333Y-83788152D02*
X75785714Y-83883390D01*
X75785714Y-83883390D02*
X75738095Y-83931009D01*
X75738095Y-83931009D02*
X75642857Y-83978628D01*
X75642857Y-83978628D02*
X75261905Y-83978628D01*
X76166667Y-83454819D02*
X76785714Y-83454819D01*
X76785714Y-83454819D02*
X76452381Y-83835771D01*
X76452381Y-83835771D02*
X76595238Y-83835771D01*
X76595238Y-83835771D02*
X76690476Y-83883390D01*
X76690476Y-83883390D02*
X76738095Y-83931009D01*
X76738095Y-83931009D02*
X76785714Y-84026247D01*
X76785714Y-84026247D02*
X76785714Y-84264342D01*
X76785714Y-84264342D02*
X76738095Y-84359580D01*
X76738095Y-84359580D02*
X76690476Y-84407200D01*
X76690476Y-84407200D02*
X76595238Y-84454819D01*
X76595238Y-84454819D02*
X76309524Y-84454819D01*
X76309524Y-84454819D02*
X76214286Y-84407200D01*
X76214286Y-84407200D02*
X76166667Y-84359580D01*
X79333333Y-85454819D02*
X79000000Y-84978628D01*
X78761905Y-85454819D02*
X78761905Y-84454819D01*
X78761905Y-84454819D02*
X79142857Y-84454819D01*
X79142857Y-84454819D02*
X79238095Y-84502438D01*
X79238095Y-84502438D02*
X79285714Y-84550057D01*
X79285714Y-84550057D02*
X79333333Y-84645295D01*
X79333333Y-84645295D02*
X79333333Y-84788152D01*
X79333333Y-84788152D02*
X79285714Y-84883390D01*
X79285714Y-84883390D02*
X79238095Y-84931009D01*
X79238095Y-84931009D02*
X79142857Y-84978628D01*
X79142857Y-84978628D02*
X78761905Y-84978628D01*
X79714286Y-84550057D02*
X79761905Y-84502438D01*
X79761905Y-84502438D02*
X79857143Y-84454819D01*
X79857143Y-84454819D02*
X80095238Y-84454819D01*
X80095238Y-84454819D02*
X80190476Y-84502438D01*
X80190476Y-84502438D02*
X80238095Y-84550057D01*
X80238095Y-84550057D02*
X80285714Y-84645295D01*
X80285714Y-84645295D02*
X80285714Y-84740533D01*
X80285714Y-84740533D02*
X80238095Y-84883390D01*
X80238095Y-84883390D02*
X79666667Y-85454819D01*
X79666667Y-85454819D02*
X80285714Y-85454819D01*
X90166666Y-72549819D02*
X90166666Y-73264104D01*
X90166666Y-73264104D02*
X90119047Y-73406961D01*
X90119047Y-73406961D02*
X90023809Y-73502200D01*
X90023809Y-73502200D02*
X89880952Y-73549819D01*
X89880952Y-73549819D02*
X89785714Y-73549819D01*
X90595238Y-72645057D02*
X90642857Y-72597438D01*
X90642857Y-72597438D02*
X90738095Y-72549819D01*
X90738095Y-72549819D02*
X90976190Y-72549819D01*
X90976190Y-72549819D02*
X91071428Y-72597438D01*
X91071428Y-72597438D02*
X91119047Y-72645057D01*
X91119047Y-72645057D02*
X91166666Y-72740295D01*
X91166666Y-72740295D02*
X91166666Y-72835533D01*
X91166666Y-72835533D02*
X91119047Y-72978390D01*
X91119047Y-72978390D02*
X90547619Y-73549819D01*
X90547619Y-73549819D02*
X91166666Y-73549819D01*
X67666666Y-72799819D02*
X67666666Y-73514104D01*
X67666666Y-73514104D02*
X67619047Y-73656961D01*
X67619047Y-73656961D02*
X67523809Y-73752200D01*
X67523809Y-73752200D02*
X67380952Y-73799819D01*
X67380952Y-73799819D02*
X67285714Y-73799819D01*
X68666666Y-73799819D02*
X68095238Y-73799819D01*
X68380952Y-73799819D02*
X68380952Y-72799819D01*
X68380952Y-72799819D02*
X68285714Y-72942676D01*
X68285714Y-72942676D02*
X68190476Y-73037914D01*
X68190476Y-73037914D02*
X68095238Y-73085533D01*
X82488095Y-74704819D02*
X82488095Y-75514342D01*
X82488095Y-75514342D02*
X82535714Y-75609580D01*
X82535714Y-75609580D02*
X82583333Y-75657200D01*
X82583333Y-75657200D02*
X82678571Y-75704819D01*
X82678571Y-75704819D02*
X82869047Y-75704819D01*
X82869047Y-75704819D02*
X82964285Y-75657200D01*
X82964285Y-75657200D02*
X83011904Y-75609580D01*
X83011904Y-75609580D02*
X83059523Y-75514342D01*
X83059523Y-75514342D02*
X83059523Y-74704819D01*
X84059523Y-75704819D02*
X83488095Y-75704819D01*
X83773809Y-75704819D02*
X83773809Y-74704819D01*
X83773809Y-74704819D02*
X83678571Y-74847676D01*
X83678571Y-74847676D02*
X83583333Y-74942914D01*
X83583333Y-74942914D02*
X83488095Y-74990533D01*
X82833333Y-87204819D02*
X82500000Y-86728628D01*
X82261905Y-87204819D02*
X82261905Y-86204819D01*
X82261905Y-86204819D02*
X82642857Y-86204819D01*
X82642857Y-86204819D02*
X82738095Y-86252438D01*
X82738095Y-86252438D02*
X82785714Y-86300057D01*
X82785714Y-86300057D02*
X82833333Y-86395295D01*
X82833333Y-86395295D02*
X82833333Y-86538152D01*
X82833333Y-86538152D02*
X82785714Y-86633390D01*
X82785714Y-86633390D02*
X82738095Y-86681009D01*
X82738095Y-86681009D02*
X82642857Y-86728628D01*
X82642857Y-86728628D02*
X82261905Y-86728628D01*
X83785714Y-87204819D02*
X83214286Y-87204819D01*
X83500000Y-87204819D02*
X83500000Y-86204819D01*
X83500000Y-86204819D02*
X83404762Y-86347676D01*
X83404762Y-86347676D02*
X83309524Y-86442914D01*
X83309524Y-86442914D02*
X83214286Y-86490533D01*
X73833333Y-64954819D02*
X73357143Y-64954819D01*
X73357143Y-64954819D02*
X73357143Y-63954819D01*
X74690476Y-64954819D02*
X74119048Y-64954819D01*
X74404762Y-64954819D02*
X74404762Y-63954819D01*
X74404762Y-63954819D02*
X74309524Y-64097676D01*
X74309524Y-64097676D02*
X74214286Y-64192914D01*
X74214286Y-64192914D02*
X74119048Y-64240533D01*
X70833333Y-79609580D02*
X70785714Y-79657200D01*
X70785714Y-79657200D02*
X70642857Y-79704819D01*
X70642857Y-79704819D02*
X70547619Y-79704819D01*
X70547619Y-79704819D02*
X70404762Y-79657200D01*
X70404762Y-79657200D02*
X70309524Y-79561961D01*
X70309524Y-79561961D02*
X70261905Y-79466723D01*
X70261905Y-79466723D02*
X70214286Y-79276247D01*
X70214286Y-79276247D02*
X70214286Y-79133390D01*
X70214286Y-79133390D02*
X70261905Y-78942914D01*
X70261905Y-78942914D02*
X70309524Y-78847676D01*
X70309524Y-78847676D02*
X70404762Y-78752438D01*
X70404762Y-78752438D02*
X70547619Y-78704819D01*
X70547619Y-78704819D02*
X70642857Y-78704819D01*
X70642857Y-78704819D02*
X70785714Y-78752438D01*
X70785714Y-78752438D02*
X70833333Y-78800057D01*
X71214286Y-78800057D02*
X71261905Y-78752438D01*
X71261905Y-78752438D02*
X71357143Y-78704819D01*
X71357143Y-78704819D02*
X71595238Y-78704819D01*
X71595238Y-78704819D02*
X71690476Y-78752438D01*
X71690476Y-78752438D02*
X71738095Y-78800057D01*
X71738095Y-78800057D02*
X71785714Y-78895295D01*
X71785714Y-78895295D02*
X71785714Y-78990533D01*
X71785714Y-78990533D02*
X71738095Y-79133390D01*
X71738095Y-79133390D02*
X71166667Y-79704819D01*
X71166667Y-79704819D02*
X71785714Y-79704819D01*
X74954819Y-86738094D02*
X73954819Y-86738094D01*
X73954819Y-86738094D02*
X73954819Y-86499999D01*
X73954819Y-86499999D02*
X74002438Y-86357142D01*
X74002438Y-86357142D02*
X74097676Y-86261904D01*
X74097676Y-86261904D02*
X74192914Y-86214285D01*
X74192914Y-86214285D02*
X74383390Y-86166666D01*
X74383390Y-86166666D02*
X74526247Y-86166666D01*
X74526247Y-86166666D02*
X74716723Y-86214285D01*
X74716723Y-86214285D02*
X74811961Y-86261904D01*
X74811961Y-86261904D02*
X74907200Y-86357142D01*
X74907200Y-86357142D02*
X74954819Y-86499999D01*
X74954819Y-86499999D02*
X74954819Y-86738094D01*
X74954819Y-85214285D02*
X74954819Y-85785713D01*
X74954819Y-85499999D02*
X73954819Y-85499999D01*
X73954819Y-85499999D02*
X74097676Y-85595237D01*
X74097676Y-85595237D02*
X74192914Y-85690475D01*
X74192914Y-85690475D02*
X74240533Y-85785713D01*
X87583333Y-77609580D02*
X87535714Y-77657200D01*
X87535714Y-77657200D02*
X87392857Y-77704819D01*
X87392857Y-77704819D02*
X87297619Y-77704819D01*
X87297619Y-77704819D02*
X87154762Y-77657200D01*
X87154762Y-77657200D02*
X87059524Y-77561961D01*
X87059524Y-77561961D02*
X87011905Y-77466723D01*
X87011905Y-77466723D02*
X86964286Y-77276247D01*
X86964286Y-77276247D02*
X86964286Y-77133390D01*
X86964286Y-77133390D02*
X87011905Y-76942914D01*
X87011905Y-76942914D02*
X87059524Y-76847676D01*
X87059524Y-76847676D02*
X87154762Y-76752438D01*
X87154762Y-76752438D02*
X87297619Y-76704819D01*
X87297619Y-76704819D02*
X87392857Y-76704819D01*
X87392857Y-76704819D02*
X87535714Y-76752438D01*
X87535714Y-76752438D02*
X87583333Y-76800057D01*
X88535714Y-77704819D02*
X87964286Y-77704819D01*
X88250000Y-77704819D02*
X88250000Y-76704819D01*
X88250000Y-76704819D02*
X88154762Y-76847676D01*
X88154762Y-76847676D02*
X88059524Y-76942914D01*
X88059524Y-76942914D02*
X87964286Y-76990533D01*
X69204819Y-81988094D02*
X68204819Y-81988094D01*
X68204819Y-81988094D02*
X68204819Y-81749999D01*
X68204819Y-81749999D02*
X68252438Y-81607142D01*
X68252438Y-81607142D02*
X68347676Y-81511904D01*
X68347676Y-81511904D02*
X68442914Y-81464285D01*
X68442914Y-81464285D02*
X68633390Y-81416666D01*
X68633390Y-81416666D02*
X68776247Y-81416666D01*
X68776247Y-81416666D02*
X68966723Y-81464285D01*
X68966723Y-81464285D02*
X69061961Y-81511904D01*
X69061961Y-81511904D02*
X69157200Y-81607142D01*
X69157200Y-81607142D02*
X69204819Y-81749999D01*
X69204819Y-81749999D02*
X69204819Y-81988094D01*
X68300057Y-81035713D02*
X68252438Y-80988094D01*
X68252438Y-80988094D02*
X68204819Y-80892856D01*
X68204819Y-80892856D02*
X68204819Y-80654761D01*
X68204819Y-80654761D02*
X68252438Y-80559523D01*
X68252438Y-80559523D02*
X68300057Y-80511904D01*
X68300057Y-80511904D02*
X68395295Y-80464285D01*
X68395295Y-80464285D02*
X68490533Y-80464285D01*
X68490533Y-80464285D02*
X68633390Y-80511904D01*
X68633390Y-80511904D02*
X69204819Y-81083332D01*
X69204819Y-81083332D02*
X69204819Y-80464285D01*
X88833333Y-83954819D02*
X88500000Y-83478628D01*
X88261905Y-83954819D02*
X88261905Y-82954819D01*
X88261905Y-82954819D02*
X88642857Y-82954819D01*
X88642857Y-82954819D02*
X88738095Y-83002438D01*
X88738095Y-83002438D02*
X88785714Y-83050057D01*
X88785714Y-83050057D02*
X88833333Y-83145295D01*
X88833333Y-83145295D02*
X88833333Y-83288152D01*
X88833333Y-83288152D02*
X88785714Y-83383390D01*
X88785714Y-83383390D02*
X88738095Y-83431009D01*
X88738095Y-83431009D02*
X88642857Y-83478628D01*
X88642857Y-83478628D02*
X88261905Y-83478628D01*
X89690476Y-83288152D02*
X89690476Y-83954819D01*
X89452381Y-82907200D02*
X89214286Y-83621485D01*
X89214286Y-83621485D02*
X89833333Y-83621485D01*
X90833333Y-83109580D02*
X90785714Y-83157200D01*
X90785714Y-83157200D02*
X90642857Y-83204819D01*
X90642857Y-83204819D02*
X90547619Y-83204819D01*
X90547619Y-83204819D02*
X90404762Y-83157200D01*
X90404762Y-83157200D02*
X90309524Y-83061961D01*
X90309524Y-83061961D02*
X90261905Y-82966723D01*
X90261905Y-82966723D02*
X90214286Y-82776247D01*
X90214286Y-82776247D02*
X90214286Y-82633390D01*
X90214286Y-82633390D02*
X90261905Y-82442914D01*
X90261905Y-82442914D02*
X90309524Y-82347676D01*
X90309524Y-82347676D02*
X90404762Y-82252438D01*
X90404762Y-82252438D02*
X90547619Y-82204819D01*
X90547619Y-82204819D02*
X90642857Y-82204819D01*
X90642857Y-82204819D02*
X90785714Y-82252438D01*
X90785714Y-82252438D02*
X90833333Y-82300057D01*
X91404762Y-82633390D02*
X91309524Y-82585771D01*
X91309524Y-82585771D02*
X91261905Y-82538152D01*
X91261905Y-82538152D02*
X91214286Y-82442914D01*
X91214286Y-82442914D02*
X91214286Y-82395295D01*
X91214286Y-82395295D02*
X91261905Y-82300057D01*
X91261905Y-82300057D02*
X91309524Y-82252438D01*
X91309524Y-82252438D02*
X91404762Y-82204819D01*
X91404762Y-82204819D02*
X91595238Y-82204819D01*
X91595238Y-82204819D02*
X91690476Y-82252438D01*
X91690476Y-82252438D02*
X91738095Y-82300057D01*
X91738095Y-82300057D02*
X91785714Y-82395295D01*
X91785714Y-82395295D02*
X91785714Y-82442914D01*
X91785714Y-82442914D02*
X91738095Y-82538152D01*
X91738095Y-82538152D02*
X91690476Y-82585771D01*
X91690476Y-82585771D02*
X91595238Y-82633390D01*
X91595238Y-82633390D02*
X91404762Y-82633390D01*
X91404762Y-82633390D02*
X91309524Y-82681009D01*
X91309524Y-82681009D02*
X91261905Y-82728628D01*
X91261905Y-82728628D02*
X91214286Y-82823866D01*
X91214286Y-82823866D02*
X91214286Y-83014342D01*
X91214286Y-83014342D02*
X91261905Y-83109580D01*
X91261905Y-83109580D02*
X91309524Y-83157200D01*
X91309524Y-83157200D02*
X91404762Y-83204819D01*
X91404762Y-83204819D02*
X91595238Y-83204819D01*
X91595238Y-83204819D02*
X91690476Y-83157200D01*
X91690476Y-83157200D02*
X91738095Y-83109580D01*
X91738095Y-83109580D02*
X91785714Y-83014342D01*
X91785714Y-83014342D02*
X91785714Y-82823866D01*
X91785714Y-82823866D02*
X91738095Y-82728628D01*
X91738095Y-82728628D02*
X91690476Y-82681009D01*
X91690476Y-82681009D02*
X91595238Y-82633390D01*
X68904761Y-86950057D02*
X68809523Y-86902438D01*
X68809523Y-86902438D02*
X68714285Y-86807200D01*
X68714285Y-86807200D02*
X68571428Y-86664342D01*
X68571428Y-86664342D02*
X68476190Y-86616723D01*
X68476190Y-86616723D02*
X68380952Y-86616723D01*
X68428571Y-86854819D02*
X68333333Y-86807200D01*
X68333333Y-86807200D02*
X68238095Y-86711961D01*
X68238095Y-86711961D02*
X68190476Y-86521485D01*
X68190476Y-86521485D02*
X68190476Y-86188152D01*
X68190476Y-86188152D02*
X68238095Y-85997676D01*
X68238095Y-85997676D02*
X68333333Y-85902438D01*
X68333333Y-85902438D02*
X68428571Y-85854819D01*
X68428571Y-85854819D02*
X68619047Y-85854819D01*
X68619047Y-85854819D02*
X68714285Y-85902438D01*
X68714285Y-85902438D02*
X68809523Y-85997676D01*
X68809523Y-85997676D02*
X68857142Y-86188152D01*
X68857142Y-86188152D02*
X68857142Y-86521485D01*
X68857142Y-86521485D02*
X68809523Y-86711961D01*
X68809523Y-86711961D02*
X68714285Y-86807200D01*
X68714285Y-86807200D02*
X68619047Y-86854819D01*
X68619047Y-86854819D02*
X68428571Y-86854819D01*
X69809523Y-86854819D02*
X69238095Y-86854819D01*
X69523809Y-86854819D02*
X69523809Y-85854819D01*
X69523809Y-85854819D02*
X69428571Y-85997676D01*
X69428571Y-85997676D02*
X69333333Y-86092914D01*
X69333333Y-86092914D02*
X69238095Y-86140533D01*
X69609580Y-72666666D02*
X69657200Y-72714285D01*
X69657200Y-72714285D02*
X69704819Y-72857142D01*
X69704819Y-72857142D02*
X69704819Y-72952380D01*
X69704819Y-72952380D02*
X69657200Y-73095237D01*
X69657200Y-73095237D02*
X69561961Y-73190475D01*
X69561961Y-73190475D02*
X69466723Y-73238094D01*
X69466723Y-73238094D02*
X69276247Y-73285713D01*
X69276247Y-73285713D02*
X69133390Y-73285713D01*
X69133390Y-73285713D02*
X68942914Y-73238094D01*
X68942914Y-73238094D02*
X68847676Y-73190475D01*
X68847676Y-73190475D02*
X68752438Y-73095237D01*
X68752438Y-73095237D02*
X68704819Y-72952380D01*
X68704819Y-72952380D02*
X68704819Y-72857142D01*
X68704819Y-72857142D02*
X68752438Y-72714285D01*
X68752438Y-72714285D02*
X68800057Y-72666666D01*
X68704819Y-72333332D02*
X68704819Y-71666666D01*
X68704819Y-71666666D02*
X69704819Y-72095237D01*
%TO.C,R3*%
D11*
X74238748Y-81765000D02*
X74761252Y-81765000D01*
X74238748Y-83235000D02*
X74761252Y-83235000D01*
%TO.C,R2*%
X80238748Y-82265000D02*
X80761252Y-82265000D01*
X80238748Y-83735000D02*
X80761252Y-83735000D01*
%TO.C,C4*%
X72261252Y-74765000D02*
X71738748Y-74765000D01*
X72261252Y-76235000D02*
X71738748Y-76235000D01*
%TO.C,J2*%
X89120000Y-74095000D02*
X90500000Y-74095000D01*
X89120000Y-75475000D02*
X89120000Y-74095000D01*
X89120000Y-76745000D02*
X89120000Y-79395000D01*
X89120000Y-76745000D02*
X91880000Y-76745000D01*
X89120000Y-79395000D02*
X91880000Y-79395000D01*
X91880000Y-76745000D02*
X91880000Y-79395000D01*
%TO.C,C3*%
X74265000Y-79261252D02*
X74265000Y-78738748D01*
X75735000Y-79261252D02*
X75735000Y-78738748D01*
%TO.C,J1*%
X66620000Y-74345000D02*
X68000000Y-74345000D01*
X66620000Y-75725000D02*
X66620000Y-74345000D01*
X66620000Y-76995000D02*
X66620000Y-79645000D01*
X66620000Y-76995000D02*
X69380000Y-76995000D01*
X66620000Y-79645000D02*
X69380000Y-79645000D01*
X69380000Y-76995000D02*
X69380000Y-79645000D01*
%TO.C,U1*%
D10*
X78075000Y-76475000D02*
X82225000Y-76475000D01*
X78075000Y-81625000D02*
X82225000Y-81625000D01*
D11*
X77475000Y-76575000D02*
X77235000Y-76245000D01*
X77715000Y-76245000D01*
X77475000Y-76575000D01*
G36*
X77475000Y-76575000D02*
G01*
X77235000Y-76245000D01*
X77715000Y-76245000D01*
X77475000Y-76575000D01*
G37*
%TO.C,R1*%
X83738748Y-84265000D02*
X84261252Y-84265000D01*
X83738748Y-85735000D02*
X84261252Y-85735000D01*
%TO.C,C5*%
X72261252Y-72765000D02*
X71738748Y-72765000D01*
X72261252Y-74235000D02*
X71738748Y-74235000D01*
%TO.C,L1*%
X75600000Y-66500000D02*
X75600000Y-63750000D01*
X75600000Y-75250000D02*
X75600000Y-72500000D01*
X76250000Y-63100000D02*
X87750000Y-63100000D01*
X87750000Y-75900000D02*
X76250000Y-75900000D01*
X88400000Y-66500000D02*
X88400000Y-63750000D01*
X88400000Y-75250000D02*
X88400000Y-72500000D01*
X75600000Y-63750000D02*
G75*
G02*
X76250000Y-63100000I650000J0D01*
G01*
X76250000Y-75900000D02*
G75*
G02*
X75600000Y-75250000I0J650000D01*
G01*
X87750000Y-63100000D02*
G75*
G02*
X88400000Y-63750000I-1J-650001D01*
G01*
X88400000Y-75250000D02*
G75*
G02*
X87750000Y-75900000I-650001J1D01*
G01*
%TO.C,C2*%
X72265000Y-79261252D02*
X72265000Y-78738748D01*
X73735000Y-79261252D02*
X73735000Y-78738748D01*
%TO.C,D1*%
X71500000Y-83640000D02*
X71500000Y-87650000D01*
X73500000Y-83640000D02*
X71500000Y-83640000D01*
X73500000Y-83640000D02*
X73500000Y-87650000D01*
%TO.C,C1*%
X85015000Y-78511252D02*
X85015000Y-77988748D01*
X86485000Y-78511252D02*
X86485000Y-77988748D01*
%TO.C,D2*%
X67140000Y-82115835D02*
X67140000Y-81884165D01*
X67860000Y-82115835D02*
X67860000Y-81884165D01*
%TO.C,R4*%
X85738748Y-82265000D02*
X86261252Y-82265000D01*
X85738748Y-83735000D02*
X86261252Y-83735000D01*
%TO.C,C8*%
X89238748Y-80265000D02*
X89761252Y-80265000D01*
X89238748Y-81735000D02*
X89761252Y-81735000D01*
%TO.C,Q1*%
X68240000Y-82440000D02*
X69760000Y-82440000D01*
X68240000Y-83440000D02*
X68240000Y-82440000D01*
X68240000Y-85560000D02*
X68240000Y-84560000D01*
X69760000Y-82440000D02*
X69760000Y-82490000D01*
X69760000Y-83610000D02*
X69760000Y-84390000D01*
X69760000Y-85510000D02*
X69760000Y-85560000D01*
X69760000Y-85560000D02*
X68240000Y-85560000D01*
X70300000Y-84380000D02*
X70060000Y-84050000D01*
X70540000Y-84050000D01*
X70300000Y-84380000D01*
G36*
X70300000Y-84380000D02*
G01*
X70060000Y-84050000D01*
X70540000Y-84050000D01*
X70300000Y-84380000D01*
G37*
%TO.C,C6*%
X72261252Y-70765000D02*
X71738748Y-70765000D01*
X72261252Y-72235000D02*
X71738748Y-72235000D01*
%TO.C,C7*%
X72261252Y-68765000D02*
X71738748Y-68765000D01*
X72261252Y-70235000D02*
X71738748Y-70235000D01*
%TD*%
M02*
