%TF.GenerationSoftware,KiCad,Pcbnew,10.0.5*%
%TF.CreationDate,2026-08-10T20:39:46+10:00*%
%TF.ProjectId,simpleBuck,73696d70-6c65-4427-9563-6b2e6b696361,rev?*%
%TF.SameCoordinates,Original*%
%TF.FileFunction,Soldermask,Top*%
%TF.FilePolarity,Negative*%
%FSLAX46Y46*%
G04 Gerber Fmt 4.6, Leading zero omitted, Abs format (unit mm)*
G04 Created by KiCad (PCBNEW 10.0.5) date 2026-08-10 20:39:46*
%MOMM*%
%LPD*%
G01*
G04 APERTURE LIST*
G04 Aperture macros list*
%AMRoundRect*
0 Rectangle with rounded corners*
0 $1 Rounding radius*
0 $2 $3 $4 $5 $6 $7 $8 $9 X,Y pos of 4 corners*
0 Add a 4 corners polygon primitive as box body*
4,1,4,$2,$3,$4,$5,$6,$7,$8,$9,$2,$3,0*
0 Add four circle primitives for the rounded corners*
1,1,$1+$1,$2,$3*
1,1,$1+$1,$4,$5*
1,1,$1+$1,$6,$7*
1,1,$1+$1,$8,$9*
0 Add four rect primitives between the rounded corners*
20,1,$1+$1,$2,$3,$4,$5,0*
20,1,$1+$1,$4,$5,$6,$7,0*
20,1,$1+$1,$6,$7,$8,$9,0*
20,1,$1+$1,$8,$9,$2,$3,0*%
G04 Aperture macros list end*
%ADD10RoundRect,0.250000X-0.337500X-0.475000X0.337500X-0.475000X0.337500X0.475000X-0.337500X0.475000X0*%
%ADD11RoundRect,0.250000X0.337500X0.475000X-0.337500X0.475000X-0.337500X-0.475000X0.337500X-0.475000X0*%
%ADD12R,1.700000X1.700000*%
%ADD13C,1.700000*%
%ADD14RoundRect,0.250000X0.475000X-0.337500X0.475000X0.337500X-0.475000X0.337500X-0.475000X-0.337500X0*%
%ADD15R,2.600000X3.100000*%
%ADD16R,1.550000X0.600000*%
%ADD17R,3.366000X5.000000*%
%ADD18RoundRect,0.225000X-0.375000X0.225000X-0.375000X-0.225000X0.375000X-0.225000X0.375000X0.225000X0*%
%ADD19RoundRect,0.155000X0.155000X-0.212500X0.155000X0.212500X-0.155000X0.212500X-0.155000X-0.212500X0*%
%ADD20RoundRect,0.150000X0.587500X0.150000X-0.587500X0.150000X-0.587500X-0.150000X0.587500X-0.150000X0*%
G04 APERTURE END LIST*
D10*
%TO.C,R3*%
X73462500Y-82500000D03*
X75537500Y-82500000D03*
%TD*%
%TO.C,R2*%
X79462500Y-83000000D03*
X81537500Y-83000000D03*
%TD*%
D11*
%TO.C,C4*%
X73037500Y-75500000D03*
X70962500Y-75500000D03*
%TD*%
D12*
%TO.C,J2*%
X90500000Y-75475000D03*
D13*
X90500000Y-78015000D03*
%TD*%
D14*
%TO.C,C3*%
X75000000Y-80037500D03*
X75000000Y-77962500D03*
%TD*%
D12*
%TO.C,J1*%
X68000000Y-75725000D03*
D13*
X68000000Y-78265000D03*
%TD*%
D15*
%TO.C,U1*%
X80150000Y-79050000D03*
D16*
X77450000Y-77145000D03*
X77450000Y-78415000D03*
X77450000Y-79685000D03*
X77450000Y-80955000D03*
X82850000Y-80955000D03*
X82850000Y-79685000D03*
X82850000Y-78415000D03*
X82850000Y-77145000D03*
%TD*%
D10*
%TO.C,R1*%
X82962500Y-85000000D03*
X85037500Y-85000000D03*
%TD*%
D11*
%TO.C,C5*%
X73037500Y-73500000D03*
X70962500Y-73500000D03*
%TD*%
D17*
%TO.C,L1*%
X87683000Y-69500000D03*
X76317000Y-69500000D03*
%TD*%
D14*
%TO.C,C2*%
X73000000Y-80037500D03*
X73000000Y-77962500D03*
%TD*%
D18*
%TO.C,D1*%
X72500000Y-84350000D03*
X72500000Y-87650000D03*
%TD*%
D14*
%TO.C,C1*%
X85750000Y-79287500D03*
X85750000Y-77212500D03*
%TD*%
D19*
%TO.C,D2*%
X67500000Y-82567500D03*
X67500000Y-81432500D03*
%TD*%
D10*
%TO.C,R4*%
X84962500Y-83000000D03*
X87037500Y-83000000D03*
%TD*%
%TO.C,C8*%
X88462500Y-81000000D03*
X90537500Y-81000000D03*
%TD*%
D20*
%TO.C,Q1*%
X69937500Y-84950000D03*
X69937500Y-83050000D03*
X68062500Y-84000000D03*
%TD*%
D11*
%TO.C,C6*%
X73037500Y-71500000D03*
X70962500Y-71500000D03*
%TD*%
%TO.C,C7*%
X73037500Y-69500000D03*
X70962500Y-69500000D03*
%TD*%
M02*
