M48
; DRILL file KiCad 10.0.5 date 2026-08-10T20:40:07
; FORMAT={-:-/ absolute / metric / decimal}
; #@! TF.CreationDate,2026-08-10T20:40:07+10:00
; #@! TF.GenerationSoftware,Kicad,Pcbnew,10.0.5
; #@! TF.FileFunction,Plated,1,2,PTH
FMAT,2
METRIC
; #@! TA.AperFunction,Plated,PTH,ViaDrill
T1C0.300
; #@! TA.AperFunction,Plated,PTH,ComponentDrill
T2C0.300
; #@! TA.AperFunction,Plated,PTH,ComponentDrill
T3C1.000
%
G90
G05
T1
X66.75Y-80.25
X66.876Y-73.543
X67.5Y-80.5
X68.05Y-65.8
X68.05Y-71.8
X68.25Y-80.25
X69.5Y-69.5
X69.5Y-71.5
X69.5Y-73.5
X69.55Y-68.8
X69.55Y-74.8
X69.55Y-80.8
X69.55Y-86.8
X69.75Y-76.25
X70.924Y-77.111
X71.0Y-68.0
X71.05Y-65.8
X71.05Y-77.8
X71.4Y-82.75
X72.0Y-76.75
X72.0Y-86.0
X73.0Y-81.125
X74.0Y-79.0
X74.05Y-65.8
X74.75Y-85.5
X75.493Y-76.401
X75.55Y-74.8
X75.55Y-86.8
X75.75Y-81.25
X76.0Y-79.0
X76.5Y-75.5
X77.0Y-82.5
X77.05Y-65.8
X77.05Y-83.8
X77.5Y-75.5
X78.417Y-81.906
X78.5Y-75.5
X78.55Y-68.8
X78.55Y-86.8
X80.05Y-65.8
X80.05Y-71.8
X80.25Y-75.75
X80.5Y-84.0
X81.55Y-68.8
X81.55Y-74.8
X81.55Y-86.8
X82.434Y-81.934
X83.0Y-82.5
X83.05Y-65.8
X83.05Y-71.8
X83.5Y-83.5
X84.066Y-84.066
X84.5Y-81.0
X84.55Y-68.8
X84.55Y-74.8
X84.55Y-86.8
X86.0Y-81.75
X86.05Y-65.8
X86.644Y-78.235
X87.0Y-80.0
X87.0Y-84.5
X87.55Y-74.8
X87.55Y-86.8
X88.5Y-79.5
X88.5Y-82.5
X88.538Y-84.506
X89.05Y-65.8
X89.05Y-77.8
X90.5Y-82.5
X90.5Y-84.5
X90.5Y-86.75
X90.55Y-68.8
X91.0Y-74.0
X91.5Y-79.5
T2
X79.5Y-77.1
X79.5Y-78.4
X79.5Y-79.7
X79.5Y-81.0
X80.8Y-77.1
X80.8Y-78.4
X80.8Y-79.7
X80.8Y-81.0
T3
X68.0Y-75.725
X68.0Y-78.265
X90.5Y-75.475
X90.5Y-78.015
M30
